<svg xmlns="http://www.w3.org/2000/svg" xmlns:xlink="http://www.w3.org/1999/xlink" version="1.1" x="0px" y="0px" viewBox="0 0 100 125" style="enable-background:new 0 0 100 100;" xml:space="preserve"><title>kids</title><path d="M26.9,93.5h46.8c10.6,0,19.2-8.6,19.2-19.2V42.8L11.7,5c-0.8-0.3-1.6,0-2,0.7s0,1.6,0.7,2l76.1,35.1H35.6  c1.8-3,2.3-6.6,1.4-9.9c1.9-1.3,2.9-3.5,2.9-5.7c0.1-3.7-2.8-6.8-6.5-6.9c-2.5,0-4.7,1.5-5.7,3.7c-2-0.5-4-0.5-6,0  c-1-2.2-3.2-3.6-5.7-3.7c-3.7,0.1-6.6,3.2-6.5,6.9c0,2.3,1.1,4.4,2.9,5.7c-0.9,3.4-0.4,6.9,1.5,9.9H7.8v31.5  C7.8,84.9,16.3,93.5,26.9,93.5z M26.9,42.8c1.1-0.6,1.8-1.7,1.9-3c0-0.6-0.2-1.3-0.6-1.8c2.1,0.9,3.8,2.6,3.2,4.8  C24.4,42.8,27.9,42.8,26.9,42.8z M18.1,42.8c-0.5-2.2,1.2-4,3.3-4.8c-0.4,0.5-0.6,1.2-0.6,1.8c0,1.3,0.7,2.4,1.9,3H18.1z M24.8,40.4  c-0.6,0-1-0.3-1-0.6s0.4-0.6,1-0.6s1,0.3,1,0.6S25.4,40.4,24.8,40.4z M33.5,23.3c2,0.1,3.6,1.8,3.5,3.9c0,1.1-0.4,2.1-1.1,2.9  c-1.2-2.1-3-3.9-5.2-5C31.2,24,32.3,23.3,33.5,23.3z M28.1,27.2L28.1,27.2c4.9,1.8,7.4,7.2,5.8,12.1c-0.7-1.3-1.6-2.4-2.9-3.2  c1-0.5,1.5-1.6,1.4-2.7c-0.2-1.4-1.4-2.4-2.7-2.4c-1.5,0-2.7,1.2-2.7,2.8c0,0.3,0.1,0.5,0.1,0.8c-1.5-0.3-3-0.3-4.7,0  c0.1-0.3,0.1-0.5,0.1-0.8c0-0.6-0.2-1.2-0.6-1.6l0,0l0,0c-0.3-0.2-0.8-1.1-2.2-1.1c-1.5,0-2.7,1.2-2.7,2.8c0,1,0.5,1.9,1.4,2.4  c-1.2,0.8-2.2,1.9-2.8,3.2c-1.7-5.1,1-10.5,6.1-12.2C23.8,26.4,26.1,26.4,28.1,27.2z M16.1,23.3c1.2,0,2.3,0.7,2.9,1.7  c-2.2,1.1-4,2.9-5.2,5c-0.7-0.8-1.1-1.8-1.1-2.9C12.6,25.1,14.1,23.4,16.1,23.3L16.1,23.3z M10.8,45.8h79.2v28.5  c0,8.9-7.2,16.2-16.2,16.2H26.9c-8.9,0-16.2-7.2-16.2-16.2V45.8z"/><path d="M21.9,66.1v4.4c0,0.8,0.7,1.5,1.5,1.5s1.5-0.7,1.5-1.5v-4.4h7.6v4.3c0,0.8,0.7,1.5,1.5,1.5s1.5-0.7,1.5-1.5v-4.3h5.6  c0.8,0,1.5-0.7,1.5-1.5c0-0.8-0.7-1.5-1.5-1.5h-5.6v-6.7h4.7c0.8,0,1.5-0.7,1.5-1.5s-0.7-1.5-1.5-1.5h-4.7v-3.6  c0-0.8-0.7-1.5-1.5-1.5s-1.5,0.7-1.5,1.5v3.6h-7.6v-3.6c0-0.8-0.7-1.5-1.5-1.5s-1.5,0.7-1.5,1.5v3.6h-5.6c-0.8,0-1.5,0.7-1.5,1.5  s0.7,1.5,1.5,1.5h5.6v6.7h-5.6c-0.8,0-1.5,0.7-1.5,1.5c0,0.8,0.7,1.5,1.5,1.5H21.9z M24.9,56.4h7.6v6.7h-7.6V56.4z"/><path d="M57.9,73.7c-0.8,0-1.5,0.7-1.5,1.5s0.7,1.5,1.5,1.5l0,0h5.6v6.4c0,0.8,0.7,1.5,1.5,1.5s1.5-0.7,1.5-1.5v-6.4H74v7.3  c0,0.8,0.7,1.5,1.5,1.5s1.5-0.7,1.5-1.5v-7.3h5.6c0.8,0,1.5-0.7,1.5-1.5s-0.7-1.5-1.5-1.5H77V67h4.7c0.8,0,1.5-0.7,1.5-1.5  S82.5,64,81.7,64H77v-5.5c0-0.8-0.7-1.5-1.5-1.5S74,57.6,74,58.5V64h-7.6v-5.5c0-0.8-0.7-1.5-1.5-1.5s-1.5,0.7-1.5,1.5V64h-5.6  c-0.8,0-1.5,0.7-1.5,1.5S57,67,57.9,67l0,0h5.6v6.7L57.9,73.7z M66.4,67H74v6.7h-7.6V67z"/><text x="0" y="115" fill="#000000" font-size="5px" font-weight="bold" font-family="'Helvetica Neue', Helvetica, Arial-Unicode, Arial, Sans-serif">Created by prasong tadoungsorn</text><text x="0" y="120" fill="#000000" font-size="5px" font-weight="bold" font-family="'Helvetica Neue', Helvetica, Arial-Unicode, Arial, Sans-serif">from the Noun Project</text></svg>